{"title":"Waka Flocka Flame - Hard In The Paint [KingPinVideos]","uid":5701107,"size":92758132,"categoryP":"other","categoryS":"other","magnet":"?xt=urn:btih:69363352c69e3b090ae864dfe3d43e75b3669026&amp;dn=Waka+Flocka+Flame+-+Hard+In+The+Paint+%5BKingPinVideos%5D&amp;tr=udp%3A%2F%2Ftracker.openbittorrent.com%3A80&amp;tr=udp%3A%2F%2Fopen.demonii.com%3A1337&amp;tr=udp%3A%2F%2Ftracker.coppersurfer.tk%3A6969&amp;tr=udp%3A%2F%2Fexodus.desync.com%3A6969","seeders":2,"leechers":0,"uploader":null,"files":5,"time":1279508456,"description":"[img]http://img841.imageshack.us/img841/4595/wakaflockahardinthepain.jpg[/img]\n[img]http://img840.imageshack.us/img840/4595/wakaflockahardinthepain.jpg[/img]\n\n[code]General\nComplete name                    : Waka Flocka - Hard In The Paint [KingPinVideos].mpg\nFormat                           : MPEG-PS\nFile size                        : 88.3 MiB\nDuration                         : 4mn 43s\nOverall bit rate                 : 2 615 Kbps\nWriting library                  : encoded by TMPGEnc 4.0 XPress Version. 4.7.4.299\n\nVideo\nID                               : 224 (0xE0)\nFormat                           : MPEG Video\nFormat version                   : Version 1\nFormat settings, BVOP            : Yes\nFormat settings, Matrix          : Default\nDuration                         : 4mn 43s\nBit rate mode                    : Variable\nBit rate                         : 2 383 Kbps\nNominal bit rate                 : 2 500 Kbps\nWidth                            : 384 pixels\nHeight                           : 208 pixels\nDisplay aspect ratio             : 16:9\nFrame rate                       : 29.970 fps\nResolution                       : 8 bits\nScan type                        : Progressive\nBits/(Pixel*Frame)               : 0.996\nStream size                      : 80.5 MiB (91%)\nWriting library                  : TMPGEnc XPress 4.7.4.299\n\nAudio\nID                               : 192 (0xC0)\nFormat                           : MPEG Audio\nFormat version                   : Version 1\nFormat profile                   : Layer 2\nDuration                         : 4mn 43s\nBit rate mode                    : Constant\nBit rate                         : 128 Kbps\nChannel(s)                       : 2 channels\nSampling rate                    : 48.0 KHz\nStream size                      : 4.32 MiB (5%)\n\n[/code]","torrent":{"xt":"urn:btih:69363352c69e3b090ae864dfe3d43e75b3669026","amp;dn":"Waka+Flocka+Flame+-+Hard+In+The+Paint+%5BKingPinVideos%5D","amp;tr":["udp%3A%2F%2Ftracker.openbittorrent.com%3A80","udp%3A%2F%2Fopen.demonii.com%3A1337","udp%3A%2F%2Ftracker.coppersurfer.tk%3A6969","udp%3A%2F%2Fexodus.desync.com%3A6969"],"infoHash":"69363352c69e3b090ae864dfe3d43e75b3669026","infoHashBuffer":{"type":"Buffer","data":[105,54,51,82,198,158,59,9,10,232,100,223,227,212,62,117,179,102,144,38]},"announce":[],"urlList":[]}}